<?xml version="1.0" encoding="UTF-8" standalone="no"?>
<!-- Created with Inkscape (http://www.inkscape.org/) -->

<svg
   xmlns:dc="http://purl.org/dc/elements/1.1/"
   xmlns:cc="http://creativecommons.org/ns#"
   xmlns:rdf="http://www.w3.org/1999/02/22-rdf-syntax-ns#"
   xmlns:svg="http://www.w3.org/2000/svg"
   xmlns="http://www.w3.org/2000/svg"
   xmlns:sodipodi="http://sodipodi.sourceforge.net/DTD/sodipodi-0.dtd"
   xmlns:inkscape="http://www.inkscape.org/namespaces/inkscape"
   width="210mm"
   height="297mm"
   viewBox="0 0 744.09448819 1052.3622047"
   id="svg2"
   version="1.1"
   inkscape:version="0.91 r13725"
   sodipodi:docname="backgroundA4.svg">
  <defs
     id="defs4">
    <clipPath
       id="clipPath16"
       clipPathUnits="userSpaceOnUse">
      <path
         inkscape:connector-curvature="0"
         id="path18"
         d="m 0,841.89 595.28,0 L 595.28,0 0,0 0,841.89 Z" />
    </clipPath>
  </defs>
  <sodipodi:namedview
     id="base"
     pagecolor="#ffffff"
     bordercolor="#666666"
     borderopacity="1.0"
     inkscape:pageopacity="0.0"
     inkscape:pageshadow="2"
     inkscape:zoom="11.2"
     inkscape:cx="674.04193"
     inkscape:cy="1004.6454"
     inkscape:document-units="mm"
     inkscape:current-layer="layer1"
     showgrid="false"
     showguides="true"
     inkscape:window-width="1440"
     inkscape:window-height="837"
     inkscape:window-x="-8"
     inkscape:window-y="-8"
     inkscape:window-maximized="1" />
  <metadata
     id="metadata7">
    <rdf:RDF>
      <cc:Work
         rdf:about="">
        <dc:format>image/svg+xml</dc:format>
        <dc:type
           rdf:resource="http://purl.org/dc/dcmitype/StillImage" />
        <dc:title></dc:title>
      </cc:Work>
    </rdf:RDF>
  </metadata>
  <g
     inkscape:label="Calque 1"
     inkscape:groupmode="layer"
     id="layer1">
    <g
       transform="matrix(0.43054839,0,0,-0.43054839,27.538993,266.11407)"
       inkscape:label="logo-projeqtor"
       id="g10">
      <g
         id="g12">
        <g
           clip-path="url(#clipPath16)"
           id="g14">
          <g
             transform="translate(387.7817,496.1446)"
             id="g20">
            <path
               inkscape:connector-curvature="0"
               id="path22"
               style="fill:#595784;fill-opacity:1;fill-rule:nonzero;stroke:none"
               d="m 0,0 -0.699,7.888 c -11.46,2.07 -3.16,10.872 -3.16,10.872 l -3.887,7.195 c -11.474,-2.884 -6.497,8.222 -6.497,8.222 l -6.155,5.064 c -2.955,-2.228 -5.053,-2.586 -6.544,-2.008 -0.28,0.158 -0.561,0.316 -0.846,0.469 -2.61,1.934 -2.788,7.128 -2.788,7.128 l -7.837,2.338 c -5.932,-10.364 -11.291,0.485 -11.291,0.485 l -8.128,-0.908 c -1.853,-11.347 -10.022,-2.852 -10.022,-2.852 l -7.195,-3.888 c 1.871,-12.012 -8.681,-7.362 -8.681,-7.362 l -5.092,-6.4 c 2.03,-3.1 2.387,-5.157 1.905,-6.526 -0.124,-0.233 -0.241,-0.471 -0.361,-0.708 -1.641,-2.37 -6.377,-1.916 -6.377,-1.916 l -2.339,-7.837 c 3.162,-2.068 4.243,-3.886 4.243,-5.407 -0.023,-0.212 -0.045,-0.424 -0.064,-0.636 -0.588,-2.904 -5.026,-4.557 -5.026,-4.557 l 0.699,-7.889 c 11.63,-2.743 3.16,-10.871 3.16,-10.871 l 3.888,-7.195 c 11.964,2.29 6.497,-8.223 6.497,-8.223 l 5.785,-4.76 9.416,13.194 c -10.955,7.865 -16.276,22.069 -12.203,35.719 5.138,17.22 23.263,27.013 40.482,21.875 17.219,-5.138 27.013,-23.262 21.875,-40.482 -2.112,-7.078 -6.422,-12.896 -11.96,-16.941 l 5.848,-9.371 c 0.033,0.023 0.065,0.048 0.098,0.072 0.845,-1.334 3.29,-3.829 3.29,-3.829 -3.618,10.014 5.261,6.764 6.698,6.183 l 0.158,-0.126 5.091,6.4 c -6.55,10.153 4.834,9.151 4.834,9.151 l 2.338,7.837 C -10.776,-4.161 0,0 0,0" />
          </g>
          <g
             transform="translate(311.268,455.6171)"
             id="g24">
            <path
               inkscape:connector-curvature="0"
               id="path26"
               style="fill:#595784;fill-opacity:1;fill-rule:nonzero;stroke:none"
               d="M 0,0 0.071,-0.058 0.131,0.015 0,0 Z" />
          </g>
          <g
             transform="translate(364.4355,461.1248)"
             id="g28">
            <path
               inkscape:connector-curvature="0"
               id="path30"
               style="fill:#e97d36;fill-opacity:1;fill-rule:nonzero;stroke:none"
               d="m 0,0 c -1.158,2.231 -2.44,4.187 -3.81,5.907 8.636,6.476 14.231,16.787 14.231,28.414 0,19.609 -15.894,35.505 -35.499,35.505 -19.606,0 -35.499,-15.896 -35.499,-35.505 0,-11.876 5.834,-22.383 14.787,-28.828 l 1.713,2.399 c -8.207,5.911 -13.556,15.541 -13.556,26.429 0,17.983 14.575,32.561 32.555,32.561 17.979,0 32.555,-14.578 32.555,-32.561 0,-10.742 -5.207,-20.26 -13.228,-26.19 -12.775,13.327 -31.236,9.035 -31.236,9.035 16.09,-2.813 23.931,-19.333 23.931,-19.333 13.258,-25.105 38.612,-9.526 38.612,-9.526 C 6.249,-15.065 0,0 0,0" />
          </g>
          <g
             transform="translate(35.8317,525.8259)"
             id="g32">
            <path
               inkscape:connector-curvature="0"
               id="path34"
               style="fill:#2b2b2a;fill-opacity:1;fill-rule:nonzero;stroke:none"
               d="m 0,0 0,-34.138 10.842,0 c 2.326,0 4.518,0.447 6.575,1.342 2.058,0.894 3.865,2.11 5.422,3.65 1.557,1.538 2.791,3.345 3.704,5.421 0.913,2.075 1.368,4.294 1.368,6.656 0,2.397 -0.455,4.634 -1.368,6.71 -0.913,2.075 -2.147,3.882 -3.704,5.421 -1.557,1.539 -3.373,2.746 -5.448,3.624 C 15.315,-0.438 13.132,0 10.842,0 L 0,0 Z m -11.38,-68.813 0,74.503 c 0,0.787 0.143,1.53 0.429,2.228 0.287,0.698 0.689,1.306 1.208,1.825 0.519,0.518 1.118,0.92 1.799,1.208 0.679,0.285 1.43,0.429 2.254,0.429 l 16.532,0 c 2.577,0 5.073,-0.341 7.488,-1.02 2.416,-0.68 4.679,-1.646 6.791,-2.898 2.11,-1.253 4.043,-2.748 5.797,-4.482 1.752,-1.737 3.246,-3.659 4.482,-5.771 1.234,-2.111 2.2,-4.375 2.898,-6.789 0.698,-2.416 1.047,-4.913 1.047,-7.489 0,-7.802 -2.81,-14.511 -8.427,-20.129 -5.547,-5.547 -12.239,-8.32 -20.076,-8.32 l -10.842,0 0,-23.295 c 0,-1.575 -0.555,-2.917 -1.665,-4.027 -1.109,-1.109 -2.451,-1.663 -4.025,-1.663 -1.575,0 -2.917,0.554 -4.026,1.663 -1.11,1.11 -1.664,2.452 -1.664,4.027" />
          </g>
          <g
             transform="translate(93.7484,505.8588)"
             id="g36">
            <path
               inkscape:connector-curvature="0"
               id="path38"
               style="fill:#595784;fill-opacity:1"
               d="m 0,0 0,-1.074 c 2.684,2.147 5.6,3.793 8.75,4.939 3.148,1.145 6.512,1.717 10.091,1.717 1.574,0 3.264,-0.108 5.072,-0.322 1.807,-0.215 3.471,-0.6 4.992,-1.154 1.521,-0.555 2.782,-1.315 3.784,-2.281 1.002,-0.967 1.503,-2.22 1.503,-3.757 0,-0.788 -0.153,-1.522 -0.456,-2.202 -0.305,-0.68 -0.707,-1.279 -1.208,-1.797 -0.502,-0.52 -1.091,-0.923 -1.771,-1.208 -0.68,-0.288 -1.414,-0.43 -2.201,-0.43 -0.68,0 -1.468,0.197 -2.361,0.59 -2.255,0.894 -4.707,1.342 -7.354,1.342 -2.613,0 -5.065,-0.492 -7.354,-1.475 C 9.197,-8.097 7.201,-9.439 5.502,-11.139 3.802,-12.838 2.46,-14.833 1.476,-17.123 0.491,-19.414 0,-21.865 0,-24.477 l 0,-24.476 c 0,-1.54 -0.546,-2.855 -1.637,-3.946 -1.092,-1.092 -2.407,-1.637 -3.946,-1.637 -1.575,0 -2.908,0.545 -3.998,1.637 -1.092,1.091 -1.638,2.406 -1.638,3.946 l 0,48.953 c 0,1.538 0.546,2.853 1.638,3.945 1.09,1.091 2.423,1.637 3.998,1.637 1.539,0 2.854,-0.546 3.946,-1.637 C -0.546,2.853 0,1.538 0,0" />
          </g>
          <g
             transform="translate(164.3346,500.2219)"
             id="g40">
            <path
               inkscape:connector-curvature="0"
               id="path42"
               style="fill:#595784;fill-opacity:1"
               d="m 0,0 c -2.649,0 -5.118,-0.501 -7.408,-1.502 -2.291,-1.002 -4.276,-2.354 -5.958,-4.053 -1.682,-1.7 -3.015,-3.696 -3.998,-5.985 -0.986,-2.29 -1.477,-4.724 -1.477,-7.3 0,-2.577 0.491,-5.011 1.477,-7.3 0.983,-2.291 2.316,-4.286 3.998,-5.986 1.682,-1.699 3.667,-3.05 5.958,-4.052 2.29,-1.002 4.759,-1.503 7.408,-1.503 2.612,0 5.063,0.501 7.354,1.503 2.289,1.002 4.285,2.362 5.985,4.08 1.699,1.718 3.041,3.712 4.025,5.984 0.984,2.272 1.477,4.697 1.477,7.274 0,2.576 -0.493,5 -1.477,7.273 -0.984,2.272 -2.326,4.268 -4.025,5.985 -1.7,1.718 -3.696,3.078 -5.985,4.08 C 5.063,-0.501 2.612,0 0,0 m 30.059,-18.84 c 0,-8.373 -2.935,-15.459 -8.803,-21.257 C 15.316,-45.966 8.23,-48.899 0,-48.899 c -8.303,0 -15.388,2.933 -21.257,8.802 -5.869,5.87 -8.802,12.954 -8.802,21.257 0,8.302 2.933,15.387 8.802,21.256 5.869,5.868 12.954,8.803 21.257,8.803 8.23,0 15.316,-2.935 21.256,-8.803 2.933,-2.935 5.126,-6.173 6.576,-9.715 1.449,-3.543 2.191,-7.391 2.227,-11.541" />
          </g>
          <g
             transform="translate(219.8897,522.1224)"
             id="g44">
            <path
               inkscape:connector-curvature="0"
               id="path46"
               style="fill:#595784;fill-opacity:1"
               d="m 0,0 c 0,-1.825 -0.645,-3.381 -1.932,-4.67 -1.289,-1.288 -2.845,-1.933 -4.671,-1.933 -1.825,0 -3.381,0.645 -4.67,1.933 -1.287,1.289 -1.932,2.845 -1.932,4.67 0,1.825 0.645,3.382 1.932,4.67 1.289,1.289 2.845,1.933 4.67,1.933 1.826,0 3.382,-0.644 4.671,-1.933 C -0.645,3.382 0,1.825 0,0 m -1.02,-16.318 0,-54.213 c 0,-3.543 -0.69,-6.889 -2.066,-10.038 -1.378,-3.148 -3.248,-5.905 -5.609,-8.267 -2.363,-2.361 -5.118,-4.231 -8.267,-5.609 -3.15,-1.377 -6.495,-2.066 -10.038,-2.066 -1.61,0 -2.943,0.536 -3.999,1.61 -1.056,1.073 -1.584,2.415 -1.584,4.026 0,1.61 0.528,2.944 1.584,3.999 1.056,1.056 2.389,1.583 3.999,1.583 2.04,0 3.954,0.385 5.743,1.154 1.79,0.77 3.355,1.825 4.697,3.167 1.343,1.342 2.407,2.908 3.194,4.697 0.787,1.789 1.181,3.704 1.181,5.744 l 0,54.213 c 0,1.574 0.545,2.907 1.637,3.999 1.092,1.092 2.407,1.637 3.945,1.637 1.539,0 2.853,-0.545 3.946,-1.637 1.091,-1.092 1.637,-2.425 1.637,-3.999" />
          </g>
          <g
             transform="translate(275.2301,486.9637)"
             id="g48">
            <path
               inkscape:connector-curvature="0"
               id="path50"
               style="fill:#2b2b2a;fill-opacity:1;fill-rule:nonzero;stroke:none"
               d="m 0,0 c -0.608,1.968 -1.512,3.766 -2.71,5.395 -1.2,1.628 -2.595,3.024 -4.187,4.186 -1.593,1.163 -3.347,2.068 -5.261,2.712 -1.914,0.643 -3.891,0.965 -5.931,0.965 -2.04,0 -4.026,-0.322 -5.959,-0.965 -1.932,-0.644 -3.703,-1.549 -5.313,-2.712 -1.61,-1.162 -3.006,-2.558 -4.187,-4.186 C -34.729,3.766 -35.606,1.968 -36.179,0 L 0,0 Z m -2.416,-18.733 c 1.611,0 2.944,-0.528 4,-1.584 1.054,-1.055 1.583,-2.388 1.583,-3.998 0,-1.575 -0.537,-2.917 -1.611,-4.026 -5.547,-4.867 -12.095,-7.3 -19.645,-7.3 -8.302,0 -15.387,2.933 -21.256,8.803 -5.87,5.869 -8.803,12.954 -8.803,21.256 0,8.302 2.933,15.387 8.803,21.256 5.869,5.868 12.954,8.803 21.256,8.803 8.23,0 15.316,-2.935 21.256,-8.803 2.933,-2.898 5.135,-6.128 6.602,-9.689 1.467,-3.56 2.202,-7.416 2.202,-11.567 0,-1.61 -0.547,-2.944 -1.638,-3.999 -1.092,-1.056 -2.425,-1.583 -3.999,-1.583 l -42.513,0 c 0.609,-1.969 1.504,-3.767 2.685,-5.395 1.18,-1.628 2.567,-3.024 4.16,-4.187 1.592,-1.163 3.345,-2.066 5.26,-2.711 1.914,-0.644 3.909,-0.966 5.985,-0.966 2.362,0 4.527,0.358 6.494,1.074 1.968,0.715 3.793,1.789 5.476,3.22 1.074,0.894 2.308,1.36 3.703,1.396" />
          </g>
          <g
             transform="translate(395.521,511.4404)"
             id="g52">
            <path
               inkscape:connector-curvature="0"
               id="path54"
               style="fill:#2b2b2a;fill-opacity:1;fill-rule:nonzero;stroke:none"
               d="m 0,0 2.522,0 0,20.183 c 0,1.538 0.545,2.854 1.637,3.945 1.092,1.091 2.425,1.637 4,1.637 1.538,0 2.853,-0.546 3.944,-1.637 1.092,-1.091 1.638,-2.407 1.638,-3.945 L 13.741,0 20.45,0 c 1.539,0 2.845,-0.545 3.919,-1.637 1.073,-1.092 1.61,-2.407 1.61,-3.945 0,-1.575 -0.537,-2.908 -1.61,-3.999 -1.074,-1.092 -2.38,-1.638 -3.919,-1.638 l -6.709,0 0,-26.998 c 0,-7.122 3.578,-10.682 10.736,-10.682 1.537,0 2.845,-0.547 3.918,-1.637 1.074,-1.092 1.61,-2.407 1.61,-3.946 0,-1.575 -0.536,-2.908 -1.61,-3.999 -1.073,-1.091 -2.381,-1.637 -3.918,-1.637 -14.637,0 -21.955,7.301 -21.955,21.901 l 0,26.998 -2.522,0 c -1.503,0 -2.801,0.546 -3.891,1.638 -1.093,1.091 -1.639,2.424 -1.639,3.999 0,1.538 0.546,2.853 1.639,3.945 C -2.801,-0.545 -1.503,0 0,0" />
          </g>
          <g
             transform="translate(476.1434,525.8259)"
             id="g56">
            <path
               inkscape:connector-curvature="0"
               id="path58"
               style="fill:#2b2b2a;fill-opacity:1;fill-rule:nonzero;stroke:none"
               d="m 0,0 c -4.438,0 -8.49,-0.77 -12.158,-2.307 -3.669,-1.54 -7.058,-3.865 -10.172,-6.979 -3.112,-3.113 -5.43,-6.494 -6.951,-10.145 -1.521,-3.65 -2.281,-7.694 -2.281,-12.131 0,-8.732 3.078,-16.175 9.232,-22.329 6.155,-6.156 13.598,-9.232 22.33,-9.232 8.731,0 16.174,3.076 22.33,9.232 6.154,6.154 9.233,13.597 9.233,22.329 0,8.696 -3.079,16.121 -9.233,22.276 C 16.139,-3.095 8.695,0 0,0 m 42.942,-31.562 c 0,-11.844 -4.206,-21.972 -12.615,-30.381 -8.373,-8.374 -18.482,-12.56 -30.327,-12.56 -11.881,0 -22.008,4.186 -30.381,12.56 -8.374,8.374 -12.561,18.5 -12.561,30.381 0,11.845 4.187,21.954 12.561,30.328 8.409,8.408 18.536,12.614 30.381,12.614 11.809,0 21.918,-4.206 30.327,-12.614 4.222,-4.223 7.381,-8.84 9.474,-13.848 2.094,-5.011 3.141,-10.504 3.141,-16.48" />
          </g>
          <g
             transform="translate(538.6771,505.8588)"
             id="g60">
            <path
               inkscape:connector-curvature="0"
               id="path62"
               style="fill:#2b2b2a;fill-opacity:1;fill-rule:nonzero;stroke:none"
               d="m 0,0 0,-1.074 c 2.684,2.147 5.6,3.793 8.75,4.939 3.148,1.145 6.512,1.717 10.091,1.717 1.574,0 3.264,-0.108 5.072,-0.322 1.807,-0.215 3.471,-0.6 4.992,-1.154 1.521,-0.555 2.782,-1.315 3.784,-2.281 1.002,-0.967 1.503,-2.22 1.503,-3.757 0,-0.788 -0.153,-1.522 -0.456,-2.202 -0.305,-0.68 -0.707,-1.279 -1.208,-1.797 -0.502,-0.52 -1.091,-0.923 -1.771,-1.208 -0.68,-0.288 -1.414,-0.43 -2.201,-0.43 -0.68,0 -1.468,0.197 -2.361,0.59 -2.255,0.894 -4.707,1.342 -7.354,1.342 -2.613,0 -5.065,-0.492 -7.354,-1.475 C 9.196,-8.097 7.201,-9.439 5.502,-11.139 3.802,-12.838 2.46,-14.833 1.476,-17.123 0.491,-19.414 0,-21.865 0,-24.477 l 0,-24.476 c 0,-1.54 -0.546,-2.855 -1.637,-3.946 -1.092,-1.092 -2.407,-1.637 -3.946,-1.637 -1.575,0 -2.908,0.545 -3.998,1.637 -1.092,1.091 -1.638,2.406 -1.638,3.946 l 0,48.953 c 0,1.538 0.546,2.853 1.638,3.945 1.09,1.091 2.423,1.637 3.998,1.637 1.539,0 2.854,-0.546 3.946,-1.637 C -0.546,2.853 0,1.538 0,0" />
          </g>
        </g>
      </g>
      <path
         transform="matrix(0.8,0,0,-0.8,0,841.89)"
         inkscape:connector-curvature="0"
         id="path3392"
         d="m 263.72955,407.25095 c -3.24026,-1.13627 -5.70009,-5.39473 -5.08378,-8.80106 0.37055,-2.04801 1.09053,-3.31781 2.66501,-4.70023 3.85861,-3.38789 9.78544,-2.39047 12.38299,2.08393 0.74646,1.28581 0.88394,2.01831 0.78184,4.16561 -0.16218,3.41091 -1.39135,5.35912 -4.2937,6.80542 -2.30581,1.14903 -4.09547,1.27283 -6.45236,0.44633 z"
         style="fill:#595784;fill-opacity:1" />
      <path
         transform="matrix(0.8,0,0,-0.8,0,841.89)"
         inkscape:connector-curvature="0"
         id="path3402"
         d="m 664.75922,487.9869 c -1.92033,-0.40564 -3.7799,-1.8847 -4.68947,-3.72989 -0.74021,-1.50163 -0.68501,1.34902 -0.65678,-33.91826 l 0.0254,-31.70619 0.27823,-0.78733 c 0.15302,-0.43303 0.43947,-1.0538 0.63654,-1.37949 0.45205,-0.74705 1.67848,-1.96962 2.40496,-2.39738 2.11814,-1.2472 4.97671,-1.26534 7.07495,-0.0449 0.79432,0.46202 2.00993,1.65654 2.48539,2.44228 0.6498,1.07387 0.89114,1.97623 0.95609,3.57487 l 0.0572,1.40805 0.77039,-0.59114 c 1.88068,-1.44309 3.97727,-2.74917 6.20256,-3.86394 5.77318,-2.8921 11.63336,-4.10747 18.44896,-3.82623 5.46229,0.2254 9.16436,0.9695 12.21828,2.45582 2.55586,1.24392 4.12808,2.7929 4.7469,4.67675 0.2265,0.68954 0.26234,0.96733 0.26795,2.07695 0.008,1.49022 -0.11383,2.00066 -0.78481,3.30091 -0.82105,1.59103 -2.29323,2.87638 -3.9133,3.41667 -0.72281,0.24106 -0.95175,0.2699 -2.13963,0.26955 -1.21593,-4e-4 -1.39371,-0.0242 -2.06923,-0.27698 -4.27229,-1.59891 -6.21514,-1.97742 -10.14905,-1.9773 -2.60458,8e-5 -3.71909,0.11771 -5.70709,0.60234 -4.86461,1.18589 -9.55761,4.16949 -12.68646,8.0655 -2.24266,2.79254 -4.02774,6.53421 -4.71454,9.88209 -0.4901,2.38901 -0.47351,1.77227 -0.53443,19.87534 -0.0548,16.27354 -0.0669,17.17255 -0.23829,17.68695 -0.79272,2.37876 -2.86408,4.29524 -5.1708,4.78414 -0.83507,0.177 -2.23186,0.16841 -3.11991,-0.0192 z"
         style="fill:#595784;fill-opacity:1" />
      <path
         transform="matrix(0.8,0,0,-0.8,0,841.89)"
         inkscape:connector-curvature="0"
         id="path3408"
         d="m 590.79236,487.99865 c -13.4065,-1.07795 -24.66235,-6.41221 -34.14046,-16.17951 -7.67014,-7.90417 -12.30161,-16.76191 -14.19829,-27.15437 -1.12919,-6.18717 -1.15882,-13.55227 -0.0799,-19.85722 2.10404,-12.29537 8.67531,-23.30924 19.03948,-31.91136 7.79432,-6.46918 16.62542,-10.27916 26.87088,-11.59284 2.44749,-0.31382 10.83108,-0.35905 13.16846,-0.0711 12.61181,1.55399 22.65696,6.50106 31.74885,15.63581 6.07002,6.09863 10.36963,12.89528 12.87036,20.34493 2.40539,7.16564 3.2317,15.21309 2.39966,23.37016 -1.23401,12.09784 -6.39609,22.79036 -15.32069,31.73463 -9.00316,9.023 -19.25203,14.05951 -31.48915,15.4744 -2.29662,0.26555 -8.63642,0.38594 -10.86922,0.20642 z m 7.53944,-14.07503 c 9.5996,-0.76795 17.38671,-4.2796 24.31735,-10.9661 8.44557,-8.14806 12.60987,-18.83069 11.96458,-30.6926 -0.30325,-5.57436 -1.50576,-10.29235 -3.81862,-14.9822 -2.04774,-4.15227 -4.2654,-7.20046 -7.80633,-10.72987 -6.82064,-6.79843 -14.67899,-10.51493 -24.02855,-11.36397 -2.60895,-0.23692 -7.60716,-0.10092 -10.04907,0.27343 -6.86598,1.05257 -12.66347,3.59944 -18.11536,7.9582 -1.85224,1.48087 -5.31813,4.94151 -6.75973,6.74951 -5.21417,6.53942 -7.77505,13.31207 -8.2926,21.93107 -0.52661,8.77 1.66845,17.178 6.28502,24.07421 4.03541,6.02809 10.04383,11.28846 16.23306,14.21206 5.97285,2.82138 13.16528,4.08865 20.07025,3.53626 z"
         style="fill:#595784;fill-opacity:1" />
      <path
         inkscape:connector-curvature="0"
         id="path3426"
         d="m 28.785494,451.54571 c -1.872372,0.45388 -3.549169,2.07367 -4.058263,3.9203 -0.201589,0.73121 -0.208339,1.99267 -0.208339,38.93729 l 0,38.18158 0.259501,0.72462 c 0.654001,1.82619 2.158621,3.23506 3.926821,3.67692 0.351248,0.0878 3.518484,0.11337 10.863355,0.0878 10.271929,-0.0358 10.380275,-0.0385 11.746731,-0.29288 4.598796,-0.85614 8.55734,-2.57412 12.21208,-5.29998 4.988844,-3.72089 8.397658,-8.51437 10.31104,-14.4994 0.964809,-3.01792 1.29008,-5.4583 1.207928,-9.06258 -0.06168,-2.70616 -0.240874,-4.10668 -0.811382,-6.34162 -1.847815,-7.2387 -6.972857,-13.80566 -13.843466,-17.73829 -3.233685,-1.85091 -7.118742,-3.02753 -11.102454,-3.36249 -0.791697,-0.0666 -4.103728,-0.12001 -7.43661,-0.12001 l -6.009181,0 -0.03354,-12.17909 c -0.03333,-12.1003 -0.03509,-12.1836 -0.271561,-12.87562 -0.130909,-0.3831 -0.398144,-0.94608 -0.593856,-1.25107 -0.458451,-0.71444 -1.542706,-1.71652 -2.23911,-2.06941 -1.141057,-0.57821 -2.643605,-0.74536 -3.91969,-0.43603 z m 20.816192,40.32915 c 2.094698,0.419 4.393403,1.31072 6.019871,2.33526 5.543253,3.49176 8.673283,9.69074 8.094164,16.03038 -0.687782,7.52916 -6.011792,13.54357 -13.534978,15.29014 -0.973013,0.22589 -1.36264,0.2401 -7.685849,0.28025 l -6.660875,0.0423 0,-17.12643 0,-17.12644 6.437918,0.0481 c 5.313908,0.0397 6.593624,0.0792 7.329749,0.22648 z"
         style="fill:#595784;fill-opacity:1" />
      <path
         transform="matrix(0.8,0,0,-0.8,0,841.89)"
         inkscape:connector-curvature="0"
         id="path3428"
         d="m 317.87655,488.00972 c -9.01334,-0.87453 -16.50705,-4.42354 -22.95493,-10.87142 -5.94727,-5.94727 -9.35129,-12.62759 -10.61537,-20.83247 -0.36663,-2.37974 -0.44177,-7.98187 -0.13923,-10.38149 0.87849,-6.96789 3.47809,-13.16316 7.77681,-18.5334 1.23802,-1.54662 4.67987,-4.99013 6.18263,-6.18563 5.81561,-4.6265 12.12362,-7.18604 19.48054,-7.90441 2.1314,-0.20812 7.70553,-0.0804 9.57369,0.21941 5.62866,0.90323 10.13321,2.63312 14.66223,5.63076 5.14071,3.40249 9.84114,8.42825 12.62791,13.50189 2.98253,5.43007 4.5503,11.78179 4.3821,17.75377 -0.0467,1.6565 -0.11,2.13383 -0.3712,2.79726 -0.63837,1.62139 -2.24301,3.21984 -3.91899,3.90384 l -0.76641,0.31279 -27.48657,0.0362 c -24.54675,0.0323 -27.48656,0.059 -27.48656,0.24912 0,0.1171 0.21264,0.76351 0.47254,1.43646 3.14148,8.13433 10.58347,13.87678 19.36318,14.94119 1.69921,0.20601 5.55467,0.0976 7.19983,-0.20241 3.66173,-0.66778 6.93983,-2.14682 9.86331,-4.4502 1.46293,-1.15263 2.108,-1.54427 3.11314,-1.89009 3.70038,-1.27312 7.73852,0.75683 8.81675,4.43214 0.29236,0.99653 0.29116,3.07023 -0.002,4.06021 -0.5119,1.7266 -1.16338,2.58883 -3.16069,4.18312 -5.2647,4.20239 -11.29111,6.74315 -18.14432,7.64973 -1.50061,0.19851 -6.94985,0.29094 -8.46805,0.14363 l 10e-6,0 z m 26.23503,-44.38989 c 0,-0.0412 -0.21131,-0.62209 -0.46958,-1.29083 -2.57394,-6.66476 -7.99894,-11.82508 -14.82277,-14.09955 -8.59672,-2.8654 -18.31511,-0.43591 -24.63606,6.15875 -1.6289,1.69943 -2.72947,3.19552 -3.68153,5.00458 -0.70806,1.34541 -1.67844,3.7087 -1.67844,4.0877 0,0.19192 2.36219,0.21428 22.64419,0.21428 12.45431,0 22.64419,-0.0337 22.64419,-0.0749 z"
         style="fill:#595784;fill-opacity:1" />
      <path
         transform="matrix(0.8,0,0,-0.8,0,841.89)"
         inkscape:connector-curvature="0"
         id="path3430"
         d="m 521.1396,487.99621 c -3.25281,-0.2493 -6.89423,-1.04479 -9.50047,-2.07545 -7.61645,-3.01197 -12.20362,-9.2829 -13.55955,-18.5367 -0.44467,-3.03472 -0.4999,-5.56407 -0.50127,-22.95772 l -10e-4,-17.45345 -2.13462,0 c -3.05289,0 -4.24505,-0.41717 -5.86842,-2.05354 -2.63885,-2.65998 -2.66318,-6.99994 -0.0541,-9.65049 1.64914,-1.67536 2.82543,-2.0915 5.91192,-2.0915 l 2.14523,0 0.002,-12.92461 c 0.003,-14.01671 0.002,-13.99826 0.76741,-15.5093 0.47375,-0.9349 1.57941,-2.11687 2.60536,-2.78518 1.15977,-0.75549 2.2652,-1.01512 4.04197,-0.94935 1.35659,0.0502 1.53172,0.0909 2.54429,0.59136 1.25913,0.6223 2.57519,1.8496 3.16848,2.9548 0.81136,1.51141 0.80065,1.30387 0.80289,15.55832 l 0.002,13.06396 4.79286,0 c 4.40656,0 4.86592,0.0226 5.69936,0.27999 2.46869,0.7625 4.30402,2.93914 4.7162,5.59327 0.51742,3.3318 -1.5366,6.66021 -4.7162,7.64228 -0.83351,0.25745 -1.29279,0.27999 -5.70377,0.27999 l -4.79726,0 0.045,18.35922 c 0.0442,18.04549 0.05,18.38064 0.33612,19.61335 0.38714,1.66766 1.02988,3.29086 1.72069,4.34548 0.75666,1.15513 2.40833,2.67215 3.57923,3.28745 1.91389,1.00572 4.65223,1.63097 7.16577,1.63618 2.42323,0.005 3.89849,0.57199 5.42777,2.08595 2.80631,2.77821 2.75191,7.20808 -0.12181,9.919 -1.9329,1.8234 -3.53781,2.15823 -8.51615,1.77669 z"
         style="fill:#595784;fill-opacity:1" />
    </g>
    <path
       inkscape:connector-curvature="0"
       style="color:#000000;clip-rule:nonzero;display:inline;overflow:visible;visibility:visible;opacity:1;isolation:auto;mix-blend-mode:normal;color-interpolation:sRGB;color-interpolation-filters:linearRGB;solid-color:#000000;solid-opacity:1;fill:#ffffff;fill-opacity:1;fill-rule:nonzero;stroke:#545381;stroke-width:7.08661413;stroke-linecap:butt;stroke-linejoin:miter;stroke-miterlimit:4;stroke-dasharray:none;stroke-dashoffset:0;stroke-opacity:1;color-rendering:auto;image-rendering:auto;shape-rendering:auto;text-rendering:auto;enable-background:accumulate"
       d="M 707.35426,36.013039 A 52.744843,52.744843 0 0 1 656.43127,88.726408"
       id="path3414" />
    <path
       inkscape:connector-curvature="0"
       style="color:#000000;clip-rule:nonzero;display:inline;overflow:visible;visibility:visible;opacity:1;isolation:auto;mix-blend-mode:normal;color-interpolation:sRGB;color-interpolation-filters:linearRGB;solid-color:#000000;solid-opacity:1;fill:#ffffff;fill-opacity:1;fill-rule:nonzero;stroke:#545381;stroke-width:7.08661413;stroke-linecap:butt;stroke-linejoin:miter;stroke-miterlimit:4;stroke-dasharray:none;stroke-dashoffset:0;stroke-opacity:1;color-rendering:auto;image-rendering:auto;shape-rendering:auto;text-rendering:auto;enable-background:accumulate"
       d="M 39.240288,141.46895 A 52.744843,52.744843 0 0 1 54.776047,104.08576 52.744843,52.744843 0 0 1 92.231343,88.72468"
       id="path3414-2" />
    <path
       style="fill:none;fill-rule:evenodd;stroke:#545381;stroke-width:7.08661413;stroke-linecap:butt;stroke-linejoin:miter;stroke-miterlimit:4;stroke-dasharray:none;stroke-opacity:1"
       d="m 91.923882,88.688914 565.685428,0"
       id="path4233"
       inkscape:connector-curvature="0" />
    <path
       style="fill:none;fill-rule:evenodd;stroke:#545381;stroke-width:7.08661417;stroke-linecap:butt;stroke-linejoin:miter;stroke-miterlimit:4;stroke-dasharray:none;stroke-opacity:1"
       d="m 39.256526,138.91173 1.02793,850.38642"
       id="path4242"
       inkscape:connector-curvature="0" />
    <path
       style="fill:none;fill-rule:evenodd;stroke:#545381;stroke-width:7.08661413;stroke-linecap:butt;stroke-linejoin:miter;stroke-miterlimit:4;stroke-dasharray:none;stroke-opacity:1"
       d="m 42.106963,985.76296 667.142857,0 0,0"
       id="path4259"
       inkscape:connector-curvature="0" />
  </g>
</svg>
